<svg width="32" height="32" viewBox="0 0 32 32" fill="none" xmlns="http://www.w3.org/2000/svg">
  <!-- Background circle -->
  <circle cx="16" cy="16" r="16" fill="url(#gradient)" />
  
  <!-- Wheat stalk -->
  <path d="M16 8 L16 24" stroke="white" stroke-width="2" stroke-linecap="round" />
  
  <!-- Wheat grains -->
  <circle cx="14" cy="10" r="1.5" fill="white" />
  <circle cx="18" cy="10" r="1.5" fill="white" />
  <circle cx="13" cy="12" r="1.5" fill="white" />
  <circle cx="19" cy="12" r="1.5" fill="white" />
  <circle cx="12" cy="14" r="1.5" fill="white" />
  <circle cx="20" cy="14" r="1.5" fill="white" />
  <circle cx="11" cy="16" r="1.5" fill="white" />
  <circle cx="21" cy="16" r="1.5" fill="white" />
  <circle cx="12" cy="18" r="1.5" fill="white" />
  <circle cx="20" cy="18" r="1.5" fill="white" />
  <circle cx="13" cy="20" r="1.5" fill="white" />
  <circle cx="19" cy="20" r="1.5" fill="white" />
  <circle cx="14" cy="22" r="1.5" fill="white" />
  <circle cx="18" cy="22" r="1.5" fill="white" />
  
  <!-- Leaf -->
  <path d="M16 12 Q20 10 22 12 Q20 14 16 12" fill="white" opacity="0.8" />
  
  <!-- Gradient definition -->
  <defs>
    <linearGradient id="gradient" x1="0%" y1="0%" x2="100%" y2="100%">
      <stop offset="0%" style="stop-color:#22c55e;stop-opacity:1" />
      <stop offset="50%" style="stop-color:#16a34a;stop-opacity:1" />
      <stop offset="100%" style="stop-color:#15803d;stop-opacity:1" />
    </linearGradient>
  </defs>
</svg> 